<?xml version="1.0" encoding="UTF-8"?>
<svg version="1.1" xmlns="http://www.w3.org/2000/svg" width="347" height="55">
<path d="M0 0 C0.70706085 0.00359528 1.4141217 0.00719055 2.14260864 0.01089478 C2.88402603 0.01074875 3.62544342 0.01060272 4.389328 0.01045227 C6.85130696 0.01115152 9.31321119 0.01894442 11.775177 0.02676392 C13.47768614 0.02862806 15.18019582 0.03005198 16.88270569 0.03105164 C21.37245148 0.03487714 25.86216513 0.0447077 30.35189819 0.05575562 C34.92983566 0.06596903 39.50777831 0.07054911 44.08572388 0.07559204 C53.07467032 0.08632994 62.06359287 0.10340675 71.05252075 0.12442017 C69.83786858 3.20187924 68.57604843 6.18618821 67.05252075 9.12442017 C67.67127075 9.16567017 68.29002075 9.20692017 68.92752075 9.24942017 C69.62877075 9.53817017 70.33002075 9.82692017 71.05252075 10.12442017 C72.30252075 13.18692017 72.30252075 13.18692017 73.05252075 16.12442017 C73.71252075 14.14442017 74.37252075 12.16442017 75.05252075 10.12442017 C77.03252075 10.12442017 79.01252075 10.12442017 81.05252075 10.12442017 C81.05252075 14.74442017 81.05252075 19.36442017 81.05252075 24.12442017 C79.40252075 24.12442017 77.75252075 24.12442017 76.05252075 24.12442017 C76.05252075 22.80442017 76.05252075 21.48442017 76.05252075 20.12442017 C75.39252075 21.44442017 74.73252075 22.76442017 74.05252075 24.12442017 C73.39252075 24.12442017 72.73252075 24.12442017 72.05252075 24.12442017 C71.06252075 22.14442017 71.06252075 22.14442017 70.05252075 20.12442017 C70.05252075 21.44442017 70.05252075 22.76442017 70.05252075 24.12442017 C68.40252075 24.12442017 66.75252075 24.12442017 65.05252075 24.12442017 C64.55752075 19.66942017 64.55752075 19.66942017 64.05252075 15.12442017 C63.76119263 15.7426062 63.4698645 16.36079224 63.16970825 16.99771118 C61.80115074 19.89594373 60.42684236 22.79141671 59.05252075 25.68692017 C58.59490356 26.65822876 58.13728638 27.62953735 57.665802 28.63027954 C53.70436078 36.96015938 49.40786504 44.95814963 45.05252075 53.12442017 C18.65252075 53.12442017 -7.74747925 53.12442017 -34.94747925 53.12442017 C-33.48767332 49.47490534 -32.04680159 46.33482168 -30.146698 42.94082642 C-29.58748657 41.94051392 -29.02827515 40.94020142 -28.45211792 39.90957642 C-27.85246216 38.84609985 -27.2528064 37.78262329 -26.63497925 36.68692017 C-25.71132568 35.04336548 -25.71132568 35.04336548 -24.76901245 33.36660767 C-5.94990197 0.01276291 -5.94990197 0.01276291 0 0 Z M65.05252075 12.12442017 C66.05252075 14.12442017 66.05252075 14.12442017 66.05252075 14.12442017 Z " fill="#C4DA9D" transform="translate(34.947479248046875,1.875579833984375)"/>
<path d="M0 0 C0.89031418 -0.00997513 1.78062836 -0.01995026 2.69792175 -0.03022766 C3.67719635 -0.03089233 4.65647095 -0.03155701 5.66542053 -0.03224182 C7.20944801 -0.0447271 7.20944801 -0.0447271 8.78466797 -0.0574646 C12.20076738 -0.08163841 15.6166762 -0.0903453 19.03285217 -0.09693909 C21.39935364 -0.10589903 23.76585449 -0.11502074 26.13235474 -0.1242981 C31.09814331 -0.14081022 36.06386427 -0.14849239 41.02967834 -0.15138245 C47.40361825 -0.15677177 53.77692605 -0.19446577 60.15068722 -0.24012661 C65.03963563 -0.26981586 69.92843026 -0.27710422 74.81746101 -0.2781086 C77.16789715 -0.28232625 79.51833311 -0.29482183 81.86868095 -0.31562614 C85.15166585 -0.34237423 88.43316491 -0.33776419 91.71620178 -0.32521057 C92.69345215 -0.34004486 93.67070251 -0.35487915 94.67756653 -0.37016296 C97.13949121 -0.34324948 99.35733368 -0.28154141 101.75550842 0.27415466 C104.33968611 3.12860296 104.75550842 4.44422102 104.75550842 8.27415466 C104.21105639 8.2783866 103.66660435 8.28261854 103.10565376 8.28697872 C89.86941357 8.39019896 76.63322804 8.49888626 63.39708138 8.61349392 C56.99622983 8.66875063 50.59537373 8.72217501 44.19447327 8.77146912 C38.02179247 8.81907214 31.84916866 8.87141343 25.67655563 8.92709541 C23.31696357 8.94753741 20.95735587 8.96624738 18.59773636 8.98322868 C15.30277581 9.00723188 12.00792373 9.03729201 8.71302795 9.0688324 C7.72904022 9.07458786 6.74505249 9.08034332 5.73124695 9.08627319 C4.38927246 9.10095642 4.38927246 9.10095642 3.02018738 9.11593628 C1.85043208 9.12561511 1.85043208 9.12561511 0.65704536 9.13548946 C-1.33196553 9.15915083 -1.33196553 9.15915083 -3.24449158 10.27415466 C-3.24449158 10.93415466 -3.24449158 11.59415466 -3.24449158 12.27415466 C-1.59449158 11.94415466 0.05550842 11.61415466 1.75550842 11.27415466 C1.75550842 12.92415466 1.75550842 14.57415466 1.75550842 16.27415466 C-1.21449158 15.94415466 -4.18449158 15.61415466 -7.24449158 15.27415466 C-7.24449158 15.93415466 -7.24449158 16.59415466 -7.24449158 17.27415466 C-5.26449158 17.27415466 -3.28449158 17.27415466 -1.24449158 17.27415466 C-0.74949158 19.25415466 -0.74949158 19.25415466 -0.24449158 21.27415466 C-2.22449158 21.27415466 -4.20449158 21.27415466 -6.24449158 21.27415466 C-6.57449158 21.93415466 -6.90449158 22.59415466 -7.24449158 23.27415466 C-4.27449158 22.94415466 -1.30449158 22.61415466 1.75550842 22.27415466 C1.75550842 23.92415466 1.75550842 25.57415466 1.75550842 27.27415466 C-2.53449158 26.94415466 -6.82449158 26.61415466 -11.24449158 26.27415466 C-11.24449158 22.64415466 -11.24449158 19.01415466 -11.24449158 15.27415466 C-12.23449158 16.75915466 -12.23449158 16.75915466 -13.24449158 18.27415466 C-12.58449158 18.93415466 -11.92449158 19.59415466 -11.24449158 20.27415466 C-11.49449158 22.83665466 -11.49449158 22.83665466 -12.24449158 25.27415466 C-16.32772162 27.31576968 -20.97732579 26.42300699 -25.24449158 25.27415466 C-25.57449158 25.60415466 -25.90449158 25.93415466 -26.24449158 26.27415466 C-33.53860922 26.50944878 -33.53860922 26.50944878 -37.24449158 25.27415466 C-36.89386658 24.57290466 -36.54324158 23.87165466 -36.18199158 23.14915466 C-35.08057227 19.7714688 -35.44933017 17.69334873 -36.24449158 14.27415466 C-34.18199158 12.64915466 -34.18199158 12.64915466 -31.24449158 11.27415466 C-27.43199158 12.08665466 -27.43199158 12.08665466 -24.24449158 13.27415466 C-24.45074158 14.03727966 -24.65699158 14.80040466 -24.86949158 15.58665466 C-25.57840361 18.4930141 -25.57840361 18.4930141 -23.24449158 21.27415466 C-22.25449158 21.27415466 -21.26449158 21.27415466 -20.24449158 21.27415466 C-21.23449158 20.61415466 -22.22449158 19.95415466 -23.24449158 19.27415466 C-23.74449158 16.83665466 -23.74449158 16.83665466 -23.24449158 14.27415466 C-21.18199158 12.39915466 -21.18199158 12.39915466 -18.24449158 11.27415466 C-14.74449158 11.58665466 -14.74449158 11.58665466 -11.24449158 12.27415466 C-9.57820203 12.30960763 -7.91039354 12.32463654 -6.24449158 12.27415466 C-5.91449158 10.95415466 -5.58449158 9.63415466 -5.24449158 8.27415466 C-6.23449158 8.27415466 -7.22449158 8.27415466 -8.24449158 8.27415466 C-5.73673481 0.03438244 -5.73673481 0.03438244 0 0 Z M-32.24449158 15.27415466 C-32.24449158 15.93415466 -32.24449158 16.59415466 -32.24449158 17.27415466 C-30.59449158 17.27415466 -28.94449158 17.27415466 -27.24449158 17.27415466 C-27.57449158 16.61415466 -27.90449158 15.95415466 -28.24449158 15.27415466 C-29.56449158 15.27415466 -30.88449158 15.27415466 -32.24449158 15.27415466 Z M-19.24449158 15.27415466 C-19.57449158 15.93415466 -19.90449158 16.59415466 -20.24449158 17.27415466 C-18.26449158 17.27415466 -16.28449158 17.27415466 -14.24449158 17.27415466 C-14.90449158 16.61415466 -15.56449158 15.95415466 -16.24449158 15.27415466 C-17.23449158 15.27415466 -18.22449158 15.27415466 -19.24449158 15.27415466 Z M-33.24449158 21.27415466 C-32.91449158 21.93415466 -32.58449158 22.59415466 -32.24449158 23.27415466 C-30.92449158 23.27415466 -29.60449158 23.27415466 -28.24449158 23.27415466 C-28.24449158 22.61415466 -28.24449158 21.95415466 -28.24449158 21.27415466 C-29.89449158 21.27415466 -31.54449158 21.27415466 -33.24449158 21.27415466 Z " fill="#FEFEFE" transform="translate(168.24449157714844,-0.2741546630859375)"/>
<path d="M0 0 C2.86487026 2.53087859 4.46578572 5.36894367 6.29296875 8.70703125 C7.23354126 10.41463623 7.23354126 10.41463623 8.19311523 12.15673828 C8.85798706 13.37528357 9.52278071 14.5938715 10.1875 15.8125 C11.20075615 17.65746079 12.21576074 19.50145153 13.23097229 21.34533691 C13.89758525 22.55620668 14.5636355 23.76738641 15.22911072 24.97888184 C18.3349645 30.62775773 21.53706452 36.21660777 24.77734375 41.7890625 C26 44 26 44 26 45 C9.17 45 -7.66 45 -25 45 C-20.61421598 36.22843195 -16.22722844 27.62220387 -11.375 19.125 C-10.8284375 18.15820312 -10.281875 17.19140625 -9.71875 16.1953125 C-6.60420734 10.71133307 -3.38428405 5.32175522 0 0 Z " fill="#F8FBF9" transform="translate(30,7)"/>
<path d="M0 0 C1.60488281 0.01450195 1.60488281 0.01450195 3.2421875 0.02929688 C4.35335937 0.05443359 5.46453125 0.07957031 6.609375 0.10546875 C8.29933594 0.12577148 8.29933594 0.12577148 10.0234375 0.14648438 C12.80256764 0.1818123 15.58072863 0.23114355 18.359375 0.29296875 C17.14472283 3.37042783 15.88290268 6.35473679 14.359375 9.29296875 C14.978125 9.33421875 15.596875 9.37546875 16.234375 9.41796875 C16.935625 9.70671875 17.636875 9.99546875 18.359375 10.29296875 C19.609375 13.35546875 19.609375 13.35546875 20.359375 16.29296875 C21.019375 14.31296875 21.679375 12.33296875 22.359375 10.29296875 C24.339375 10.29296875 26.319375 10.29296875 28.359375 10.29296875 C28.359375 14.91296875 28.359375 19.53296875 28.359375 24.29296875 C26.709375 24.29296875 25.059375 24.29296875 23.359375 24.29296875 C23.359375 22.97296875 23.359375 21.65296875 23.359375 20.29296875 C22.699375 21.61296875 22.039375 22.93296875 21.359375 24.29296875 C20.699375 24.29296875 20.039375 24.29296875 19.359375 24.29296875 C18.699375 22.97296875 18.039375 21.65296875 17.359375 20.29296875 C17.359375 21.61296875 17.359375 22.93296875 17.359375 24.29296875 C15.709375 24.29296875 14.059375 24.29296875 12.359375 24.29296875 C11.864375 19.83796875 11.864375 19.83796875 11.359375 15.29296875 C11.06804687 15.91115479 10.77671875 16.52934082 10.4765625 17.16625977 C4.71545247 29.36672371 -1.12515391 41.47550973 -7.640625 53.29296875 C-11.600625 53.29296875 -15.560625 53.29296875 -19.640625 53.29296875 C-19.970625 51.97296875 -20.300625 50.65296875 -20.640625 49.29296875 C-18.990625 47.97296875 -17.340625 46.65296875 -15.640625 45.29296875 C-15.970625 44.63296875 -16.300625 43.97296875 -16.640625 43.29296875 C-15.650625 42.79796875 -15.650625 42.79796875 -14.640625 42.29296875 C-14.970625 40.31296875 -15.300625 38.33296875 -15.640625 36.29296875 C-14.4959375 35.70515625 -14.4959375 35.70515625 -13.328125 35.10546875 C-10.49484718 33.47253142 -10.49484718 33.47253142 -9.078125 30.66796875 C-7.640625 28.29296875 -7.640625 28.29296875 -5.453125 27.48046875 C-4.855 27.41859375 -4.256875 27.35671875 -3.640625 27.29296875 C-3.640625 26.63296875 -3.640625 25.97296875 -3.640625 25.29296875 C-4.300625 24.96296875 -4.960625 24.63296875 -5.640625 24.29296875 C-5.310625 22.64296875 -4.980625 20.99296875 -4.640625 19.29296875 C-7.280625 18.63296875 -9.920625 17.97296875 -12.640625 17.29296875 C-12.310625 16.63296875 -11.980625 15.97296875 -11.640625 15.29296875 C-8.578125 14.66796875 -8.578125 14.66796875 -5.640625 14.29296875 C-8.610625 13.30296875 -11.580625 12.31296875 -14.640625 11.29296875 C-13.815625 10.52984375 -12.990625 9.76671875 -12.140625 8.98046875 C-9.30007303 6.53862733 -9.30007303 6.53862733 -9.640625 3.29296875 C-6.59519444 0.20737172 -4.23277041 -0.06754421 0 0 Z M12.359375 12.29296875 C13.359375 14.29296875 13.359375 14.29296875 13.359375 14.29296875 Z " fill="#F4F6F4" transform="translate(87.640625,1.70703125)"/>
<path d="M0 0 C3.87641915 4.32369829 10 11.95808443 10 18 C22.21 18 34.42 18 47 18 C46.34 18.66 45.68 19.32 45 20 C45.495 20.99 45.495 20.99 46 22 C44.68 22.66 43.36 23.32 42 24 C42.99 24.99 42.99 24.99 44 26 C43.34 26 42.68 26 42 26 C42 26.66 42 27.32 42 28 C41.34 28.66 40.68 29.32 40 30 C39.35232207 32.57061311 39.35232207 32.57061311 39 35 C36.03 35 33.06 35 30 35 C30.20625 35.7425 30.4125 36.485 30.625 37.25 C31.04408751 40.32330841 30.61949011 41.42786866 29 44 C28.34 44 27.68 44 27 44 C27.474375 44.928125 27.94875 45.85625 28.4375 46.8125 C30 50 30 50 31 53 C10.87 53 -9.26 53 -30 53 C-28.54019407 49.35048517 -27.09932234 46.21040152 -25.19921875 42.81640625 C-24.64000732 41.81609375 -24.0807959 40.81578125 -23.50463867 39.78515625 C-22.90498291 38.72167969 -22.30532715 37.65820312 -21.6875 36.5625 C-20.76384644 34.91894531 -20.76384644 34.91894531 -19.8215332 33.2421875 C-2.44489796 2.44489796 -2.44489796 2.44489796 0 0 Z M0 5 C-1.42730019 7.24879074 -2.7872577 9.51051011 -4.125 11.8125 C-4.55151855 12.54210937 -4.97803711 13.27171875 -5.41748047 14.0234375 C-9.73975726 21.4667703 -13.93729428 28.98044735 -18.125 36.5 C-18.46613831 37.11138824 -18.80727661 37.72277649 -19.15875244 38.35269165 C-20.13177187 40.09832026 -21.10112286 41.84599215 -22.0703125 43.59375 C-22.63508301 44.61146484 -23.19985352 45.62917969 -23.78173828 46.67773438 C-25.07742609 48.71052081 -25.07742609 48.71052081 -25 50 C-8.17 50 8.66 50 26 50 C21.99352295 41.9870459 17.93104984 34.14249354 13.5 26.375 C12.68595703 24.93640625 12.68595703 24.93640625 11.85546875 23.46875 C9.15960091 18.72041953 6.4306497 13.99196796 3.65625 9.2890625 C3.16962891 8.4635791 2.68300781 7.6380957 2.18164062 6.78759766 C1.79169922 6.19769043 1.40175781 5.6077832 1 5 C0.67 5 0.34 5 0 5 Z " fill="#A3C962" transform="translate(30,2)"/>
<path d="M0 0 C13.53 0 27.06 0 41 0 C41 0.66 41 1.32 41 2 C40.34 2 39.68 2 39 2 C39.495 3.485 39.495 3.485 40 5 C39.34 5.33 38.68 5.66 38 6 C37.29788106 7.65204456 36.63028587 9.31923769 36 11 C35.67 11.33 35.34 11.66 35 12 C37.475 12.495 37.475 12.495 40 13 C37.03312999 14.64826111 34.34373475 15.44271087 31 16 C31 16.66 31 17.32 31 18 C23.74 18 16.48 18 9 18 C6.7725 14.101875 6.7725 14.101875 4.5 10.125 C4.03013672 9.30789551 3.56027344 8.49079102 3.07617188 7.64892578 C2.71072266 7.0042334 2.34527344 6.35954102 1.96875 5.6953125 C1.59169922 5.03547363 1.21464844 4.37563477 0.82617188 3.69580078 C0 2 0 2 0 0 Z " fill="#BCBEC0" transform="translate(31,2)"/>
<path d="M0 0 C3.36316944 3.94014659 5.84327358 8.04305432 8.3125 12.5625 C9.1060322 13.99389931 9.90031002 15.42488551 10.6953125 16.85546875 C11.08493164 17.55849121 11.47455078 18.26151367 11.87597656 18.98583984 C15.51368661 25.50432548 19.34010881 31.91621215 23.1875 38.3125 C29.7325 49.1975 29.7325 49.1975 31 53 C10.87 53 -9.26 53 -30 53 C-28.54019407 49.35048517 -27.09932234 46.21040152 -25.19921875 42.81640625 C-24.64000732 41.81609375 -24.0807959 40.81578125 -23.50463867 39.78515625 C-22.90498291 38.72167969 -22.30532715 37.65820312 -21.6875 36.5625 C-20.76384644 34.91894531 -20.76384644 34.91894531 -19.8215332 33.2421875 C-2.44489796 2.44489796 -2.44489796 2.44489796 0 0 Z M0 5 C-1.42730019 7.24879074 -2.7872577 9.51051011 -4.125 11.8125 C-4.55151855 12.54210937 -4.97803711 13.27171875 -5.41748047 14.0234375 C-9.73975726 21.4667703 -13.93729428 28.98044735 -18.125 36.5 C-18.46613831 37.11138824 -18.80727661 37.72277649 -19.15875244 38.35269165 C-20.13177187 40.09832026 -21.10112286 41.84599215 -22.0703125 43.59375 C-22.63508301 44.61146484 -23.19985352 45.62917969 -23.78173828 46.67773438 C-25.07742609 48.71052081 -25.07742609 48.71052081 -25 50 C-8.17 50 8.66 50 26 50 C21.99352295 41.9870459 17.93104984 34.14249354 13.5 26.375 C12.68595703 24.93640625 12.68595703 24.93640625 11.85546875 23.46875 C9.15960091 18.72041953 6.4306497 13.99196796 3.65625 9.2890625 C3.16962891 8.4635791 2.68300781 7.6380957 2.18164062 6.78759766 C1.79169922 6.19769043 1.40175781 5.6077832 1 5 C0.67 5 0.34 5 0 5 Z " fill="#158937" transform="translate(30,2)"/>
<path d="M0 0 C1.32 0.33 2.64 0.66 4 1 C3.34 1.33 2.68 1.66 2 2 C2 2.66 2 3.32 2 4 C3.65 3.67 5.3 3.34 7 3 C7 4.65 7 6.3 7 8 C4.03 7.67 1.06 7.34 -2 7 C-2 7.66 -2 8.32 -2 9 C-0.02 9 1.96 9 4 9 C4.495 10.98 4.495 10.98 5 13 C3.02 13 1.04 13 -1 13 C-1.33 13.66 -1.66 14.32 -2 15 C2.455 14.505 2.455 14.505 7 14 C7 15.65 7 17.3 7 19 C2.71 18.67 -1.58 18.34 -6 18 C-6 14.37 -6 10.74 -6 7 C-6.99 8.485 -6.99 8.485 -8 10 C-7.34 10.66 -6.68 11.32 -6 12 C-6.25 14.5625 -6.25 14.5625 -7 17 C-11.08323004 19.04161502 -15.73283422 18.14885233 -20 17 C-20.33 17.33 -20.66 17.66 -21 18 C-28.29411765 18.23529412 -28.29411765 18.23529412 -32 17 C-31.649375 16.29875 -31.29875 15.5975 -30.9375 14.875 C-29.8360807 11.49731414 -30.20483859 9.41919407 -31 6 C-28.9375 4.375 -28.9375 4.375 -26 3 C-22.1875 3.8125 -22.1875 3.8125 -19 5 C-19.20625 5.763125 -19.4125 6.52625 -19.625 7.3125 C-20.33391203 10.21885944 -20.33391203 10.21885944 -18 13 C-17.01 13 -16.02 13 -15 13 C-15.99 12.34 -16.98 11.68 -18 11 C-18.5 8.5625 -18.5 8.5625 -18 6 C-15.9375 4.125 -15.9375 4.125 -13 3 C-9.5 3.3125 -9.5 3.3125 -6 4 C-4.33371045 4.03545297 -2.66590197 4.05048188 -1 4 C-0.67 2.68 -0.34 1.36 0 0 Z M-27 7 C-27 7.66 -27 8.32 -27 9 C-25.35 9 -23.7 9 -22 9 C-22.33 8.34 -22.66 7.68 -23 7 C-24.32 7 -25.64 7 -27 7 Z M-14 7 C-14.33 7.66 -14.66 8.32 -15 9 C-13.02 9 -11.04 9 -9 9 C-9.66 8.34 -10.32 7.68 -11 7 C-11.99 7 -12.98 7 -14 7 Z M-28 13 C-27.67 13.66 -27.34 14.32 -27 15 C-25.68 15 -24.36 15 -23 15 C-23 14.34 -23 13.68 -23 13 C-24.65 13 -26.3 13 -28 13 Z " fill="#198C3D" transform="translate(163,8)"/>
<path d="M0 0 C1.1034375 -0.00257812 2.206875 -0.00515625 3.34375 -0.0078125 C6.23137952 0.11369666 8.73736962 0.27870126 11.5 1.125 C12.16 2.115 12.82 3.105 13.5 4.125 C13.83 3.135 14.16 2.145 14.5 1.125 C15.82 1.125 17.14 1.125 18.5 1.125 C18.07274437 3.68853377 17.66285524 5.81844896 16.4375 8.125 C15.28911037 10.57489787 15.35146574 12.45138335 15.5 15.125 C13.85 15.125 12.2 15.125 10.5 15.125 C10.5825 14.2175 10.665 13.31 10.75 12.375 C10.78364525 9.08812716 10.78364525 9.08812716 8.8125 6.8125 C6.28136854 4.71761939 6.28136854 4.71761939 1.5 4.125 C1.83 7.755 2.16 11.385 2.5 15.125 C0.85 15.125 -0.8 15.125 -2.5 15.125 C-2.17 11.495 -1.84 7.865 -1.5 4.125 C-3.15 4.455 -4.8 4.785 -6.5 5.125 C-6.5 8.425 -6.5 11.725 -6.5 15.125 C-9.8 15.125 -13.1 15.125 -16.5 15.125 C-17.16 13.805 -17.82 12.485 -18.5 11.125 C-19.49 10.795 -20.48 10.465 -21.5 10.125 C-21.17 11.775 -20.84 13.425 -20.5 15.125 C-22.15 15.125 -23.8 15.125 -25.5 15.125 C-25.5 10.505 -25.5 5.885 -25.5 1.125 C-16.3203125 0.83203125 -16.3203125 0.83203125 -13.5 1.125 C-11.5 4.125 -11.5 4.125 -11.875 6.0625 C-12.08125 6.743125 -12.2875 7.42375 -12.5 8.125 C-12.5 9.445 -12.5 10.765 -12.5 12.125 C-11.84 12.455 -11.18 12.785 -10.5 13.125 C-10.83 9.165 -11.16 5.205 -11.5 1.125 C-7.40420505 0.30584101 -4.12392096 -0.00963533 0 0 Z M-21.5 4.125 C-21.5 4.785 -21.5 5.445 -21.5 6.125 C-19.52 6.125 -17.54 6.125 -15.5 6.125 C-15.83 5.465 -16.16 4.805 -16.5 4.125 C-18.15 4.125 -19.8 4.125 -21.5 4.125 Z " fill="#404141" transform="translate(328.5,10.875)"/>
<path d="M0 0 C4.62 0 9.24 0 14 0 C12.74646003 3.13384992 11.53924548 6.03145514 10 9 C10.61875 9.04125 11.2375 9.0825 11.875 9.125 C12.57625 9.41375 13.2775 9.7025 14 10 C15.25 13.0625 15.25 13.0625 16 16 C16.66 14.02 17.32 12.04 18 10 C19.98 10 21.96 10 24 10 C24 14.62 24 19.24 24 24 C22.35 24 20.7 24 19 24 C19 22.68 19 21.36 19 20 C18.34 21.32 17.68 22.64 17 24 C16.34 24 15.68 24 15 24 C14.34 22.68 13.68 21.36 13 20 C13 21.32 13 22.64 13 24 C11.35 24 9.7 24 8 24 C7.67 21.03 7.34 18.06 7 15 C6.01 16.98 5.02 18.96 4 21 C3.01 20.34 2.02 19.68 1 19 C1 18.34 1 17.68 1 17 C-0.98 17 -2.96 17 -5 17 C-3.35 15.68 -1.7 14.36 0 13 C-0.99 12.67 -1.98 12.34 -3 12 C-2.0022242 9.00667261 -1.2477975 8.05233685 1 6 C0.01 5.34 -0.98 4.68 -2 4 C-0.02 3.34 1.96 2.68 4 2 C2.68 1.34 1.36 0.68 0 0 Z M8 12 C9 14 9 14 9 14 Z " fill="#FAFBFA" transform="translate(92,2)"/>
<path d="M0 0 C0.99 0.33 1.98 0.66 3 1 C4.1875 4.5625 4.1875 4.5625 5 8 C5.66 8 6.32 8 7 8 C7.309375 7.05125 7.61875 6.1025 7.9375 5.125 C9 2 9 2 10 0 C10.99 0.33 11.98 0.66 13 1 C12.67 4.3 12.34 7.6 12 11 C12.66 11 13.32 11 14 11 C14 11.66 14 12.32 14 13 C14.99 13 15.98 13 17 13 C17 16.96 17 20.92 17 25 C12.33333333 25 7.66666667 25 3 25 C1.7625 25.061875 1.7625 25.061875 0.5 25.125 C-2 25 -2 25 -4 23 C-4.3125 19.5625 -4.3125 19.5625 -4 16 C-3.51273438 15.56945313 -3.02546875 15.13890625 -2.5234375 14.6953125 C-0.20806476 12.11871822 -0.48052689 9.70664321 -0.3125 6.3125 C-0.21388672 4.54326172 -0.21388672 4.54326172 -0.11328125 2.73828125 C-0.07589844 1.83464844 -0.03851562 0.93101563 0 0 Z " fill="#CAE4D2" transform="translate(24,25)"/>
<path d="M0 0 C1.093125 -0.04125 2.18625 -0.0825 3.3125 -0.125 C4.199375 -0.08375 5.08625 -0.0425 6 0 C6.66 0.99 7.32 1.98 8 3 C8.33 2.01 8.66 1.02 9 0 C11.81256281 -0.02684312 14.62487241 -0.04676188 17.4375 -0.0625 C18.23994141 -0.07087891 19.04238281 -0.07925781 19.86914062 -0.08789062 C21.91295221 -0.0965143 23.95683902 -0.0522815 26 0 C27.77615437 1.77615437 27 4.60136388 27 7 C27.20625 7.721875 27.4125 8.44375 27.625 9.1875 C27.74875 9.785625 27.8725 10.38375 28 11 C27.34 11.99 26.68 12.98 26 14 C21.97409284 14.41820365 18.05612469 14.12945079 14 14 C14.33 10.04 14.66 6.08 15 2 C10.9350171 5.91276056 10.9350171 5.91276056 9.875 11.1875 C9.91625 12.115625 9.9575 13.04375 10 14 C8.35 14 6.7 14 5 14 C5.061875 13.113125 5.12375 12.22625 5.1875 11.3125 C4.98048018 7.65514983 4.083926 5.95222849 2 3 C1.484375 3.350625 0.96875 3.70125 0.4375 4.0625 C-2.94006667 5.3615641 -5.50468057 4.67217681 -9 4 C-9 5.98 -9 7.96 -9 10 C-4.545 9.505 -4.545 9.505 0 9 C0.33 10.32 0.66 11.64 1 13 C-2.76951592 14.25650531 -6.05869551 14.42697465 -10 14 C-12 13 -12 13 -13 11 C-13.53121937 7.3573529 -13.79901654 4.17950061 -11.6875 1.0625 C-7.57963145 -1.52393575 -4.60601068 -0.7026118 0 0 Z M18 3 C18 3.66 18 4.32 18 5 C19.98 5 21.96 5 24 5 C23.67 4.34 23.34 3.68 23 3 C21.35 3 19.7 3 18 3 Z M19 8 C18.67 8.99 18.34 9.98 18 11 C19.65 11 21.3 11 23 11 C23 10.01 23 9.02 23 8 C21.68 8 20.36 8 19 8 Z " fill="#404041" transform="translate(188,12)"/>
<path d="M0 0 C6.27 0 12.54 0 19 0 C18 2 18 2 17 3 C18.32 3.66 19.64 4.32 21 5 C19.02 7.97 19.02 7.97 17 11 C17.66 11.33 18.32 11.66 19 12 C19 13.32 19 14.64 19 16 C19.99 16.66 20.98 17.32 22 18 C17.71 18 13.42 18 9 18 C7.49480613 15.37785672 5.99568681 12.75255792 4.5 10.125 C3.85611328 9.00544922 3.85611328 9.00544922 3.19921875 7.86328125 C2.79316406 7.14785156 2.38710938 6.43242187 1.96875 5.6953125 C1.59169922 5.03547363 1.21464844 4.37563477 0.82617188 3.69580078 C0 2 0 2 0 0 Z " fill="#999C9E" transform="translate(31,2)"/>
<path d="M0 0 C3.3 0 6.6 0 10 0 C9.67 1.98 9.34 3.96 9 6 C8.01 6 7.02 6 6 6 C5.34 7.65 4.68 9.3 4 11 C6.97 11.66 9.94 12.32 13 13 C9.81237635 15.12508244 7.73487777 15.5020163 4 16 C4.99 16.66 5.98 17.32 7 18 C4.27076612 18.0270817 1.54180363 18.04687847 -1.1875 18.0625 C-1.95642578 18.07087891 -2.72535156 18.07925781 -3.51757812 18.08789062 C-7.48526789 18.10491934 -11.12571234 17.98604115 -15 17 C-15 16.67 -15 16.34 -15 16 C-11.7 15.34 -8.4 14.68 -5 14 C-6.32 13.01 -7.64 12.02 -9 11 C-7.68 11 -6.36 11 -5 11 C-4.87625 10.030625 -4.7525 9.06125 -4.625 8.0625 C-4.41875 7.051875 -4.2125 6.04125 -4 5 C-3.34 4.67 -2.68 4.34 -2 4 C-2 3.34 -2 2.68 -2 2 C-1.34 2 -0.68 2 0 2 C0 1.34 0 0.68 0 0 Z " fill="#D7D8DA" transform="translate(72,2)"/>
<path d="M0 0 C8.58 0 17.16 0 26 0 C25.01 0.66 24.02 1.32 23 2 C20.95166298 3.82932327 20.95166298 3.82932327 20.0625 5.9375 C17.7842806 10.35992589 14.49803439 12.03210995 10 14 C9.01 14 8.02 14 7 14 C6.01780373 12.23084525 5.03934641 10.45961431 4.0625 8.6875 C3.51722656 7.70136719 2.97195312 6.71523438 2.41015625 5.69921875 C1 3 1 3 0 0 Z " fill="#92C147" transform="translate(41,20)"/>
<path d="M0 0 C1.65 0 3.3 0 5 0 C5.66 1.98 6.32 3.96 7 6 C7.66 4.02 8.32 2.04 9 0 C10.98 0 12.96 0 15 0 C15 4.62 15 9.24 15 14 C13.35 14 11.7 14 10 14 C10 12.68 10 11.36 10 10 C9.34 11.32 8.68 12.64 8 14 C7.34 14 6.68 14 6 14 C5.34 12.68 4.68 11.36 4 10 C4 11.32 4 12.64 4 14 C2.35 14 0.7 14 -1 14 C-1.027193 12.41676312 -1.04648306 10.83338938 -1.0625 9.25 C-1.07410156 8.36828125 -1.08570312 7.4865625 -1.09765625 6.578125 C-1.00826198 4.2181162 -0.66912821 2.25501476 0 0 Z " fill="#1B863C" transform="translate(101,12)"/>
<path d="M0 0 C1.8871875 0.061875 1.8871875 0.061875 3.8125 0.125 C3.8125 1.775 3.8125 3.425 3.8125 5.125 C2.8225 5.455 1.8325 5.785 0.8125 6.125 C0.4825 7.775 0.1525 9.425 -0.1875 11.125 C2.85463267 12.64606634 6.09297572 12.49929338 9.4375 12.6875 C10.14390625 12.73068359 10.8503125 12.77386719 11.578125 12.81835938 C13.32268537 12.92444751 15.06756697 13.02522889 16.8125 13.125 C13.80362219 14.70658962 11.17577963 15.56445339 7.8125 16.125 C7.8125 16.785 7.8125 17.445 7.8125 18.125 C6.39626784 18.17947047 4.97941809 18.21800508 3.5625 18.25 C2.37914062 18.28480469 2.37914062 18.28480469 1.171875 18.3203125 C-1.39481941 18.1078378 -2.9791067 17.41154105 -5.1875 16.125 C-4.8575 14.805 -4.5275 13.485 -4.1875 12.125 C-5.1775 11.795 -6.1675 11.465 -7.1875 11.125 C-5.8675 9.145 -4.5475 7.165 -3.1875 5.125 C-4.5075 4.795 -5.8275 4.465 -7.1875 4.125 C-7.1875 3.465 -7.1875 2.805 -7.1875 2.125 C-4.09861478 0.06574319 -3.47814073 -0.1140374 0 0 Z " fill="#A8AAAD" transform="translate(54.1875,1.875)"/>
<path d="M0 0 C8.3984375 -0.1953125 8.3984375 -0.1953125 11 0 C13 2 13 2 13.25 4.5 C13 7 13 7 11 9 C11.7425 9.680625 11.7425 9.680625 12.5 10.375 C14 12 14 12 14 14 C12.02 14 10.04 14 8 14 C7.67 12.35 7.34 10.7 7 9 C6.01 9 5.02 9 4 9 C4.33 10.65 4.66 12.3 5 14 C3.35 14 1.7 14 0 14 C0 9.38 0 4.76 0 0 Z M4 3 C4 3.66 4 4.32 4 5 C5.65 5 7.3 5 9 5 C9 4.34 9 3.68 9 3 C7.35 3 5.7 3 4 3 Z " fill="#404141" transform="translate(230,12)"/>
<path d="M0 0 C1 3.875 1 3.875 1 5 C1.92628204 5.0154612 1.92628204 5.0154612 2.87127686 5.03123474 C9.29515018 5.13936746 15.71888516 5.25396011 22.14257812 5.37231445 C24.54033515 5.41564155 26.9381226 5.45731822 29.3359375 5.49731445 C32.78134326 5.55507063 36.22659625 5.61875006 39.671875 5.68359375 C40.74491882 5.70030624 41.81796265 5.71701874 42.92352295 5.73423767 C43.92425842 5.75418289 44.9249939 5.77412811 45.95605469 5.79467773 C46.83541687 5.81022202 47.71477905 5.8257663 48.62078857 5.84178162 C50.89939855 5.99330997 52.84463614 6.24484715 55 7 C55.495 7.99 55.495 7.99 56 9 C35.87 9 15.74 9 -5 9 C-3.47426795 5.18566987 -2.47253678 3.03447696 0 0 Z " fill="#40A463" transform="translate(5,46)"/>
<path d="M0 0 C0 1.65 0 3.3 0 5 C-2.97 4.67 -5.94 4.34 -9 4 C-9 4.66 -9 5.32 -9 6 C-7.02 5.67 -5.04 5.34 -3 5 C-3 6.65 -3 8.3 -3 10 C-5.97 9.505 -5.97 9.505 -9 9 C-9 9.99 -9 10.98 -9 12 C-4.545 11.505 -4.545 11.505 0 11 C0 12.65 0 14.3 0 16 C-4.29 15.67 -8.58 15.34 -13 15 C-13 10.38 -13 5.76 -13 1 C-2.25 0 -2.25 0 0 0 Z " fill="#404141" transform="translate(274,11)"/>
<path d="M0 0 C0 1.65 0 3.3 0 5 C-2.64 5 -5.28 5 -8 5 C-5.03 5.495 -5.03 5.495 -2 6 C-2 7.32 -2 8.64 -2 10 C-4.97 9.505 -4.97 9.505 -8 9 C-8 9.99 -8 10.98 -8 12 C-5.36 11.67 -2.72 11.34 0 11 C0 12.65 0 14.3 0 16 C-4.29 15.67 -8.58 15.34 -13 15 C-13 10.38 -13 5.76 -13 1 C-1.125 0 -1.125 0 0 0 Z " fill="#404141" transform="translate(229,11)"/>
<path d="M0 0 C1.65 0 3.3 0 5 0 C6.8125 2.5 6.8125 2.5 8 5 C8.33 3.35 8.66 1.7 9 0 C10.32 0 11.64 0 13 0 C13 4.62 13 9.24 13 14 C11.68 14 10.36 14 9 14 C6.75 11 6.75 11 5 8 C5 9.98 5 11.96 5 14 C3.35 14 1.7 14 0 14 C0 9.38 0 4.76 0 0 Z " fill="#3F4241" transform="translate(160,36)"/>
<path d="M0 0 C1.5778125 0.5878125 1.5778125 0.5878125 3.1875 1.1875 C3.001875 1.991875 2.81625 2.79625 2.625 3.625 C2.4084375 4.8934375 2.4084375 4.8934375 2.1875 6.1875 C2.5175 6.5175 2.8475 6.8475 3.1875 7.1875 C3.375 9.625 3.375 9.625 3.1875 12.1875 C1.1875 14.1875 1.1875 14.1875 -0.6875 14.41796875 C-1.38875 14.40378906 -2.09 14.38960937 -2.8125 14.375 C-3.51375 14.36855469 -4.215 14.36210937 -4.9375 14.35546875 C-6.8125 14.1875 -6.8125 14.1875 -8.8125 13.1875 C-8.6475 12.56875 -8.4825 11.95 -8.3125 11.3125 C-7.53797426 8.02076559 -8.12245737 5.4652025 -8.8125 2.1875 C-5.40642194 -0.49607665 -4.36051646 -0.92929039 0 0 Z M-4.8125 3.1875 C-4.8125 3.8475 -4.8125 4.5075 -4.8125 5.1875 C-3.1625 5.1875 -1.5125 5.1875 0.1875 5.1875 C-0.1425 4.5275 -0.4725 3.8675 -0.8125 3.1875 C-2.1325 3.1875 -3.4525 3.1875 -4.8125 3.1875 Z M-5.8125 9.1875 C-5.4825 9.8475 -5.1525 10.5075 -4.8125 11.1875 C-3.1625 10.8575 -1.5125 10.5275 0.1875 10.1875 C0.1875 9.8575 0.1875 9.5275 0.1875 9.1875 C-1.7925 9.1875 -3.7725 9.1875 -5.8125 9.1875 Z " fill="#404141" transform="translate(256.8125,11.8125)"/>
<path d="M0 0 C2 2 2 2 2.3125 5.9375 C2.22787031 8.39176089 2.10592691 9.78814617 1 12 C-2.26083766 13.63041883 -5.44238446 13.65964122 -9 13 C-11.70415801 10.80287161 -11.94492745 9.44058039 -12.375 6 C-11.95989664 2.67917314 -11.34610397 1.34610397 -9 -1 C-5.19825711 -2.26724763 -3.6488868 -1.4750819 0 0 Z M-7 2 C-7.66 3.65 -8.32 5.3 -9 7 C-7.77190909 8.64555699 -7.77190909 8.64555699 -6 10 C-3.83700789 9.77242269 -3.83700789 9.77242269 -2 9 C-2 7.02 -2 5.04 -2 3 C-3.65 2.67 -5.3 2.34 -7 2 Z " fill="#198C3D" transform="translate(129,13)"/>
<path d="M0 0 C1.65 0 3.3 0 5 0 C5 3.3 5 6.6 5 10 C5.99 10 6.98 10 8 10 C8.33 6.7 8.66 3.4 9 0 C10.32 0 11.64 0 13 0 C13.05389087 1.95803507 13.09274217 3.91648909 13.125 5.875 C13.14820313 6.96554688 13.17140625 8.05609375 13.1953125 9.1796875 C13 12 13 12 11 14 C8.90625 14.30078125 8.90625 14.30078125 6.5 14.3125 C5.7059375 14.32925781 4.911875 14.34601562 4.09375 14.36328125 C3.4028125 14.24339844 2.711875 14.12351562 2 14 C-0.28062828 10.57905758 -0.21925007 9.31812778 -0.125 5.3125 C-0.10695313 4.31863281 -0.08890625 3.32476562 -0.0703125 2.30078125 C-0.04710937 1.54152344 -0.02390625 0.78226563 0 0 Z " fill="#404041" transform="translate(289,12)"/>
<path d="M0 0 C-1.98 2.97 -1.98 2.97 -4 6 C-3.34 6.33 -2.68 6.66 -2 7 C-2 8.32 -2 9.64 -2 11 C-1.01 11.66 -0.02 12.32 1 13 C-3.29 13 -7.58 13 -12 13 C-13.06775224 11.03533587 -14.06553465 9.03144641 -15 7 C-14.67 6.34 -14.34 5.68 -14 5 C-13.030625 4.87625 -12.06125 4.7525 -11.0625 4.625 C-7.88417172 4.3508355 -7.88417172 4.3508355 -6.625 1.9375 C-6.41875 1.298125 -6.2125 0.65875 -6 0 C-6.66 -0.33 -7.32 -0.66 -8 -1 C-4.59745511 -2.2151946 -3.06748874 -1.86240388 0 0 Z " fill="#9D9EA1" transform="translate(52,7)"/>
<path d="M0 0 C0 1.65 0 3.3 0 5 C-2.64 4.67 -5.28 4.34 -8 4 C-8 4.66 -8 5.32 -8 6 C-6.02 6 -4.04 6 -2 6 C-2 7.32 -2 8.64 -2 10 C-4.97 9.505 -4.97 9.505 -8 9 C-8 9.66 -8 10.32 -8 11 C-5.36 11 -2.72 11 0 11 C0 12.32 0 13.64 0 15 C-3.63 15 -7.26 15 -11 15 C-11 10.38 -11 5.76 -11 1 C-8.5559375 0.7525 -8.5559375 0.7525 -6.0625 0.5 C-4.68771484 0.36078125 -4.68771484 0.36078125 -3.28515625 0.21875 C-1 0 -1 0 0 0 Z " fill="#3F4241" transform="translate(292,35)"/>
<path d="M0 0 C1.32 0.33 2.64 0.66 4 1 C2.68 1.99 1.36 2.98 0 4 C0.3403125 5.0828125 0.3403125 5.0828125 0.6875 6.1875 C1.09305931 9.83753379 0.23774092 11.14495124 -2 14 C-4.1875 15.3125 -4.1875 15.3125 -6 16 C-5.67 17.32 -5.34 18.64 -5 20 C-7.31 20 -9.62 20 -12 20 C-12.66 18.35 -13.32 16.7 -14 15 C-13.01 15.33 -12.02 15.66 -11 16 C-11 14.35 -11 12.7 -11 11 C-8.33333333 9.66666667 -5.66666667 8.33333333 -3 7 C-3 5.35 -3 3.7 -3 2 C-2.01 2 -1.02 2 0 2 C0 1.34 0 0.68 0 0 Z " fill="#CDE2C2" transform="translate(73,35)"/>
<path d="M0 0 C-0.99 0.495 -0.99 0.495 -2 1 C-1.67 1.66 -1.34 2.32 -1 3 C-2.98 3.99 -2.98 3.99 -5 5 C-4.34 5.66 -3.68 6.32 -3 7 C-3.66 7 -4.32 7 -5 7 C-5 7.66 -5 8.32 -5 9 C-5.66 9.66 -6.32 10.32 -7 11 C-7.64767793 13.57061311 -7.64767793 13.57061311 -8 16 C-10.64 16 -13.28 16 -16 16 C-15.38858197 12.43339484 -14.35642381 9.34584541 -13 6 C-13 5.34 -13 4.68 -13 4 C-12.34 4 -11.68 4 -11 4 C-11 3.34 -11 2.68 -11 2 C-9.73392393 1.46770674 -8.46189588 0.94955456 -7.1875 0.4375 C-6.47980469 0.14746094 -5.77210937 -0.14257812 -5.04296875 -0.44140625 C-3 -1 -3 -1 0 0 Z " fill="#B0CF7A" transform="translate(77,21)"/>
<path d="M0 0 C-0.33 1.32 -0.66 2.64 -1 4 C-3.97 3.67 -6.94 3.34 -10 3 C-10 4.98 -10 6.96 -10 9 C-5.545 8.505 -5.545 8.505 -1 8 C-0.67 9.32 -0.34 10.64 0 12 C-3.75286989 13.25095663 -7.07596863 13.58042964 -11 13 C-13.70415801 10.80287161 -13.94492745 9.44058039 -14.375 6 C-13.95989664 2.67917314 -13.34610397 1.34610397 -11 -1 C-6.74938644 -2.41687119 -4.28148375 -1.19320039 0 0 Z " fill="#404141" transform="translate(288,13)"/>
<path d="M0 0 C1.32 0 2.64 0 4 0 C5.31537364 2.43598808 6.62739143 4.8736825 7.9375 7.3125 C8.31068359 8.00279297 8.68386719 8.69308594 9.06835938 9.40429688 C9.42607422 10.07138672 9.78378906 10.73847656 10.15234375 11.42578125 C10.48226318 12.03848877 10.81218262 12.65119629 11.15209961 13.2824707 C12 15 12 15 13 18 C-5.15 18 -23.3 18 -42 18 C-42 17.67 -42 17.34 -42 17 C-25.17 17 -8.34 17 9 17 C6.03 11.72 3.06 6.44 0 1 C0 0.67 0 0.34 0 0 Z " fill="#0C8228" transform="translate(47,36)"/>
<path d="M0 0 C-0.185625 0.721875 -0.37125 1.44375 -0.5625 2.1875 C-1.01995307 5.12826973 -0.73516357 7.14103058 0 10 C-1.5625 11.5625 -1.5625 11.5625 -4 13 C-7.75 12.6875 -7.75 12.6875 -11 12 C-10.814375 11.0925 -10.62875 10.185 -10.4375 9.25 C-9.79926433 6.14974046 -9.79926433 6.14974046 -10.625 3.8125 C-11 2 -11 2 -10.0625 0.1875 C-6.68529593 -1.75695083 -3.75995659 -0.67802496 0 0 Z M-7 2 C-7 2.66 -7 3.32 -7 4 C-5.68 3.67 -4.36 3.34 -3 3 C-4.32 2.67 -5.64 2.34 -7 2 Z M-9 7 C-8.67 7.66 -8.34 8.32 -8 9 C-6.35 9 -4.7 9 -3 9 C-5.8424854 7.42726432 -5.8424854 7.42726432 -9 7 Z " fill="#404141" transform="translate(191,37)"/>
<path d="M0 0 C1.65 0 3.3 0 5 0 C4.67 3.3 4.34 6.6 4 10 C5.32 9.34 6.64 8.68 8 8 C8 5.36 8 2.72 8 0 C9.32 0 10.64 0 12 0 C12.10815225 1.76949095 12.18566083 3.54087487 12.25 5.3125 C12.29640625 6.29863281 12.3428125 7.28476562 12.390625 8.30078125 C12 11 12 11 10.18359375 12.87109375 C7.1440955 14.44249803 5.23620162 13.8629871 2 13 C0.18884044 11.18884044 0.61800552 8.38721773 0.4375 5.9375 C0.35371094 4.83277344 0.26992187 3.72804687 0.18359375 2.58984375 C0.09271484 1.30787109 0.09271484 1.30787109 0 0 Z " fill="#404141" transform="translate(244,36)"/>
<path d="M0 0 C3.3 0 6.6 0 10 0 C11 3 11 3 10.3125 5.0625 C8.75464624 7.36218889 7.59117744 8.05775366 5 9 C4.01 9 3.02 9 2 9 C2.33 9.99 2.66 10.98 3 12 C2.67 12.66 2.34 13.32 2 14 C0.68 14 -0.64 14 -2 14 C-2.33 12.35 -2.66 10.7 -3 9 C-2.34 9 -1.68 9 -1 9 C-1.33 8.01 -1.66 7.02 -2 6 C-1.34 5.67 -0.68 5.34 0 5 C0 3.35 0 1.7 0 0 Z " fill="#B6D7B1" transform="translate(60,37)"/>
<path d="M0 0 C0 0.66 0 1.32 0 2 C-0.66 2 -1.32 2 -2 2 C-2.226875 2.845625 -2.45375 3.69125 -2.6875 4.5625 C-4.00463166 8.01213053 -5.56549604 10.40154799 -7.7578125 13.3203125 C-9.33603051 15.45438088 -10.6765486 17.70137388 -12 20 C-13.32 19.67 -14.64 19.34 -16 19 C-16 18.01 -16 17.02 -16 16 C-13.5 13.8125 -13.5 13.8125 -11 12 C-11.33 11.34 -11.66 10.68 -12 10 C-11.34 9.67 -10.68 9.34 -10 9 C-10.33 7.02 -10.66 5.04 -11 3 C-7.16674383 0.29417212 -4.67461851 -0.32613618 0 0 Z " fill="#E6EFE1" transform="translate(83,35)"/>
<path d="M0 0 C3.96 0 7.92 0 12 0 C12 1.65 12 3.3 12 5 C10.68 4.67 9.36 4.34 8 4 C8 7.63 8 11.26 8 15 C6.68 15 5.36 15 4 15 C4 11.37 4 7.74 4 4 C2.68 4.33 1.36 4.66 0 5 C0 3.35 0 1.7 0 0 Z " fill="#404141" transform="translate(226,35)"/>
<path d="M0 0 C3.96 0 7.92 0 12 0 C12 1.65 12 3.3 12 5 C10.68 4.67 9.36 4.34 8 4 C8.33 7.63 8.66 11.26 9 15 C7.35 15 5.7 15 4 15 C4.33 11.37 4.66 7.74 5 4 C3.35 4.33 1.7 4.66 0 5 C0 3.35 0 1.7 0 0 Z " fill="#3F4241" transform="translate(262,35)"/>
<path d="M0 0 C3.96 0 7.92 0 12 0 C12 1.65 12 3.3 12 5 C10.68 4.67 9.36 4.34 8 4 C8.33 7.63 8.66 11.26 9 15 C7.35 15 5.7 15 4 15 C4.33 11.37 4.66 7.74 5 4 C3.35 4.33 1.7 4.66 0 5 C0 3.35 0 1.7 0 0 Z " fill="#3F4241" transform="translate(197,35)"/>
<path d="M0 0 C4.94028892 0.14115111 8.2627712 3.0812997 12 6 C11.67 6.99 11.34 7.98 11 9 C10.01 8.67 9.02 8.34 8 8 C8 7.34 8 6.68 8 6 C6.9171875 6.804375 6.9171875 6.804375 5.8125 7.625 C3 9 3 9 0.1875 8.1875 C-0.534375 7.795625 -1.25625 7.40375 -2 7 C-2.125 4.625 -2.125 4.625 -2 2 C-1.34 1.34 -0.68 0.68 0 0 Z " fill="#EFF7F2" transform="translate(23,40)"/>
<path d="M0 0 C1.4540625 0.0309375 1.4540625 0.0309375 2.9375 0.0625 C1.9475 0.3925 0.9575 0.7225 -0.0625 1.0625 C-0.14476668 4.10636724 -0.03858217 6.13425348 0.9375 9.0625 C0.4425 9.51625 -0.0525 9.97 -0.5625 10.4375 C-2.28859337 11.93885519 -2.28859337 11.93885519 -2.0625 14.0625 C-4.3725 14.0625 -6.6825 14.0625 -9.0625 14.0625 C-9.0625 12.7425 -9.0625 11.4225 -9.0625 10.0625 C-8.4025 10.0625 -7.7425 10.0625 -7.0625 10.0625 C-7.0625 9.4025 -7.0625 8.7425 -7.0625 8.0625 C-6.4025 8.0625 -5.7425 8.0625 -5.0625 8.0625 C-5.0625 7.4025 -5.0625 6.7425 -5.0625 6.0625 C-4.4025 6.0625 -3.7425 6.0625 -3.0625 6.0625 C-3.3409375 4.8559375 -3.3409375 4.8559375 -3.625 3.625 C-3.769375 2.779375 -3.91375 1.93375 -4.0625 1.0625 C-3.0625 0.0625 -3.0625 0.0625 0 0 Z " fill="#D8E7C6" transform="translate(83.0625,19.9375)"/>
<path d="M0 0 C0.99 0.33 1.98 0.66 3 1 C4.1875 4.5625 4.1875 4.5625 5 8 C5.66 8 6.32 8 7 8 C7.309375 7.05125 7.61875 6.1025 7.9375 5.125 C9 2 9 2 10 0 C10.99 0.33 11.98 0.66 13 1 C13 4.63 13 8.26 13 12 C12.01 12 11.02 12 10 12 C9.67 10.35 9.34 8.7 9 7 C7.515 9.475 7.515 9.475 6 12 C3.77810176 9.77810176 3.07401108 7.91517292 2 5 C2 7.31 2 9.62 2 12 C1.34 12 0.68 12 0 12 C0 8.04 0 4.08 0 0 Z " fill="#45A05E" transform="translate(24,25)"/>
<path d="M0 0 C5.44610698 0.79056392 8.11181637 3.73089485 11.875 7.5625 C11.215 8.8825 10.555 10.2025 9.875 11.5625 C7.20833333 11.5625 4.54166667 11.5625 1.875 11.5625 C0.6375 11.624375 0.6375 11.624375 -0.625 11.6875 C-3.125 11.5625 -3.125 11.5625 -5.125 9.5625 C-5.375 6.0625 -5.375 6.0625 -5.125 2.5625 C-3.125 0.5625 -3.125 0.5625 0 0 Z M-2.125 1.5625 C-4.41228734 3.40133881 -4.41228734 3.40133881 -4.25 6.1875 C-4.20875 6.97125 -4.1675 7.755 -4.125 8.5625 C-1.90723378 9.86764736 -1.90723378 9.86764736 0.875 10.5625 C3.67667287 9.29916727 3.67667287 9.29916727 5.875 7.5625 C6.205 8.5525 6.535 9.5425 6.875 10.5625 C7.865 10.2325 8.855 9.9025 9.875 9.5625 C8.51784732 5.49104196 6.53607545 4.67465891 2.875 2.5625 C0.24733611 1.60030298 0.24733611 1.60030298 -2.125 1.5625 Z " fill="#35954B" transform="translate(25.125,38.4375)"/>
<path d="M0 0 C0 0.66 0 1.32 0 2 C-0.66 2 -1.32 2 -2 2 C-2 2.99 -2 3.98 -2 5 C-2.99 5.495 -2.99 5.495 -4 6 C-4.144375 6.78375 -4.28875 7.5675 -4.4375 8.375 C-5.05384083 11.25125721 -5.77728856 12.16384707 -8 14 C-9.32 13.34 -10.64 12.68 -12 12 C-10.625 10.5 -10.625 10.5 -9 9 C-8.34 9 -7.68 9 -7 9 C-7 8.34 -7 7.68 -7 7 C-7.66 6.67 -8.32 6.34 -9 6 C-8.67 4.35 -8.34 2.7 -8 1 C-5.07175348 0.02391783 -3.04386724 -0.08226668 0 0 Z " fill="#E4EED9" transform="translate(91,20)"/>
<path d="M0 0 C2 0.75 2 0.75 5 2.75 C3.02 3.08 1.04 3.41 -1 3.75 C-1.33 5.4 -1.66 7.05 -2 8.75 C0.97 9.74 3.94 10.73 7 11.75 C7 12.08 7 12.41 7 12.75 C-4.52164009 11.97095672 -4.52164009 11.97095672 -10 9.75 C-9.175 8.986875 -8.35 8.22375 -7.5 7.4375 C-4.65944803 4.99565858 -4.65944803 4.99565858 -5 1.75 C-2 -0.25 -2 -0.25 0 0 Z " fill="#E3E4E4" transform="translate(83,3.25)"/>
<path d="M0 0 C2.31 0 4.62 0 7 0 C7 3.96 7 7.92 7 12 C5.35 11.67 3.7 11.34 2 11 C1.9175 10.401875 1.835 9.80375 1.75 9.1875 C0.79451097 6.400657 -0.6450848 5.67123014 -3 4 C-3 3.34 -3 2.68 -3 2 C-1.68 2.33 -0.36 2.66 1 3 C1.33 2.34 1.66 1.68 2 1 C1.34 0.67 0.68 0.34 0 0 Z " fill="#A9D4B6" transform="translate(34,38)"/>
<path d="M0 0 C2.97 0 5.94 0 9 0 C9.80967438 2.91482778 10.21845993 4.46113217 9.0625 7.3125 C8.711875 7.869375 8.36125 8.42625 8 9 C7.34 9 6.68 9 6 9 C5.67 9.66 5.34 10.32 5 11 C3.35 7.37 1.7 3.74 0 0 Z " fill="#88C483" transform="translate(51,37)"/>
<path d="M0 0 C1.32 0 2.64 0 4 0 C4 4.62 4 9.24 4 14 C2.68 14 1.36 14 0 14 C0 9.38 0 4.76 0 0 Z " fill="#404041" transform="translate(149,36)"/>
<path d="M0 0 C-0.33 0.66 -0.66 1.32 -1 2 C-0.360625 2.103125 0.27875 2.20625 0.9375 2.3125 C1.618125 2.539375 2.29875 2.76625 3 3 C3.33 3.99 3.66 4.98 4 6 C3.01 5.67 2.02 5.34 1 5 C-1.72897438 4.61496448 -4.45128163 4.2601109 -7.1875 3.9375 C-7.93708984 3.84662109 -8.68667969 3.75574219 -9.45898438 3.66210938 C-11.30565535 3.4386269 -13.15278554 3.21894487 -15 3 C-14.67 2.34 -14.34 1.68 -14 1 C-9.31604754 -0.14242743 -4.78644729 -0.08252495 0 0 Z " fill="#EFF2F0" transform="translate(90,16)"/>
<path d="M0 0 C-2.96687001 1.64826111 -5.65626525 2.44271087 -9 3 C-9 3.66 -9 4.32 -9 5 C-10.41623216 5.05447047 -11.83308191 5.09300508 -13.25 5.125 C-14.03890625 5.14820313 -14.8278125 5.17140625 -15.640625 5.1953125 C-18.20731941 4.9828378 -19.7916067 4.28654105 -22 3 C-21.67 2.34 -21.34 1.68 -21 1 C-18.38836681 0.68398046 -15.87155881 0.48577009 -13.25 0.375 C-12.53328125 0.33632812 -11.8165625 0.29765625 -11.078125 0.2578125 C-7.38312402 0.06762863 -3.69965924 -0.04369676 0 0 Z " fill="#B8BBBB" transform="translate(71,15)"/>
<path d="M0 0 C1.65 0 3.3 0 5 0 C5 4.62 5 9.24 5 14 C3.35 14 1.7 14 0 14 C0 9.38 0 4.76 0 0 Z " fill="#3F4241" transform="translate(215,36)"/>
<path d="M0 0 C3 2 3 2 5 4 C2.53183586 5.23408207 0.75338799 5.20197579 -2 5.25 C-2.886875 5.27578125 -3.77375 5.3015625 -4.6875 5.328125 C-5.450625 5.21984375 -6.21375 5.1115625 -7 5 C-7.66 4.01 -8.32 3.02 -9 2 C-5.87350101 0.14725986 -3.62683775 -0.37198336 0 0 Z " fill="#9EC657" transform="translate(58,32)"/>
<path d="M0 0 C0 0.99 0 1.98 0 3 C-0.99 3.66 -1.98 4.32 -3 5 C-4.19232613 7.05003955 -4.19232613 7.05003955 -5 9 C-6.65 9 -8.3 9 -10 9 C-9.625 6.5625 -9.625 6.5625 -9 4 C-8.34 3.67 -7.68 3.34 -7 3 C-7 2.34 -7 1.68 -7 1 C-4.53721199 -0.231394 -2.7204945 -0.07159196 0 0 Z " fill="#CFD0D2" transform="translate(77,3)"/>
<path d="M0 0 C1.32 0 2.64 0 4 0 C4.33 0.99 4.66 1.98 5 3 C4.34 3 3.68 3 3 3 C2.76915606 5.1205318 2.76915606 5.1205318 4.5 6.5625 C4.995 7.036875 5.49 7.51125 6 8 C6 8.33 6 8.66 6 9 C3.69 9 1.38 9 -1 9 C-1.66 7.35 -2.32 5.7 -3 4 C-2.01 4.33 -1.02 4.66 0 5 C0 3.35 0 1.7 0 0 Z " fill="#C3DEBE" transform="translate(62,46)"/>
<path d="M0 0 C0.99 0 1.98 0 3 0 C1.7771055 4.89157798 0.3522544 7.34618634 -4 10 C-4.99 9.67 -5.98 9.34 -7 9 C-5.33333333 7.33333333 -3.66666667 5.66666667 -2 4 C-1.30251417 2.68252676 -0.63040043 1.35085807 0 0 Z " fill="#D7E7CD" transform="translate(71,42)"/>
<path d="M0 0 C2.31 0 4.62 0 7 0 C6.01 0.33 5.02 0.66 4 1 C4 1.66 4 2.32 4 3 C4.66 3.33 5.32 3.66 6 4 C4.25 6.0625 4.25 6.0625 2 8 C-0.25 7.75 -0.25 7.75 -2 7 C-1.34 6.34 -0.68 5.68 0 5 C0.16687448 2.41645782 0.16687448 2.41645782 0 0 Z " fill="#A2CE9B" transform="translate(60,37)"/>
<path d="M0 0 C1.41569064 -0.08167446 2.83276805 -0.13949698 4.25 -0.1875 C5.43335938 -0.23970703 5.43335938 -0.23970703 6.640625 -0.29296875 C9 0 9 0 13 3 C8.71 3 4.42 3 0 3 C0 2.01 0 1.02 0 0 Z " fill="#A7ABA8" transform="translate(40,17)"/>
<path d="M0 0 C0.99 0.66 1.98 1.32 3 2 C2.67 2.99 2.34 3.98 2 5 C1.34 5 0.68 5 0 5 C0 5.66 0 6.32 0 7 C-0.99 7 -1.98 7 -3 7 C-3 6.34 -3 5.68 -3 5 C-4.65 5 -6.3 5 -8 5 C-8 4.67 -8 4.34 -8 4 C-6.35 4 -4.7 4 -3 4 C-2.67 3.01 -2.34 2.02 -2 1 C-1.34 0.67 -0.68 0.34 0 0 Z " fill="#F2F6EE" transform="translate(86,30)"/>
<path d="M0 0 C0 0.33 0 0.66 0 1 C3.96 1.33 7.92 1.66 12 2 C12 2.33 12 2.66 12 3 C9.27076612 3.0270817 6.54180363 3.04687847 3.8125 3.0625 C3.04357422 3.07087891 2.27464844 3.07925781 1.48242188 3.08789062 C-2.48526789 3.10491934 -6.12571234 2.98604115 -10 2 C-10 1.67 -10 1.34 -10 1 C-6.59437148 0.22157062 -3.49234244 -0.09978121 0 0 Z " fill="#CCD5CB" transform="translate(67,17)"/>
<path d="M0 0 C-0.99 0.66 -1.98 1.32 -3 2 C-3.66 2.66 -4.32 3.32 -5 4 C-5 4.33 -5 4.66 -5 5 C-6.98 5 -8.96 5 -11 5 C-11 4.01 -11 3.02 -11 2 C-7.17010894 0.19769832 -4.21878192 -0.19622241 0 0 Z " fill="#9AC550" transform="translate(67,20)"/>
<path d="M0 0 C1.65 0 3.3 0 5 0 C5.33 0.99 5.66 1.98 6 3 C5.67 3.66 5.34 4.32 5 5 C3.68 5 2.36 5 1 5 C0.67 3.35 0.34 1.7 0 0 Z " fill="#A9D2A4" transform="translate(57,46)"/>
<path d="M0 0 C1.32 0.33 2.64 0.66 4 1 C2.515 2.485 2.515 2.485 1 4 C1.33 4.66 1.66 5.32 2 6 C0.35 5.67 -1.3 5.34 -3 5 C-2.67 4.01 -2.34 3.02 -2 2 C-1.34 2 -0.68 2 0 2 C0 1.34 0 0.68 0 0 Z " fill="#D0E1AE" transform="translate(76,28)"/>
<path d="M0 0 C2.99324263 1.0975223 3.84610901 1.67682892 5.25 4.625 C5.4975 5.40875 5.745 6.1925 6 7 C4.68 7 3.36 7 2 7 C1.34 4.69 0.68 2.38 0 0 Z " fill="#0E8832" transform="translate(54,47)"/>
<path d="M0 0 C0.99 0.33 1.98 0.66 3 1 C3 4.63 3 8.26 3 12 C2.01 11.67 1.02 11.34 0 11 C0.33 8.69 0.66 6.38 1 4 C0.34 4 -0.32 4 -1 4 C-0.67 2.68 -0.34 1.36 0 0 Z " fill="#18832B" transform="translate(34,25)"/>
<path d="M0 0 C-0.66 1.32 -1.32 2.64 -2 4 C-2.66 4 -3.32 4 -4 4 C-4.33 4.66 -4.66 5.32 -5 6 C-5.33 4.02 -5.66 2.04 -6 0 C-3 -1 -3 -1 0 0 Z " fill="#91C890" transform="translate(61,42)"/>
<path d="M0 0 C1.32 0.33 2.64 0.66 4 1 C4 1.66 4 2.32 4 3 C3.34 3 2.68 3 2 3 C2 3.66 2 4.32 2 5 C0.68 5 -0.64 5 -2 5 C-1.34 3.35 -0.68 1.7 0 0 Z " fill="#ADCE75" transform="translate(64,29)"/>
<path d="M0 0 C1.65 0.33 3.3 0.66 5 1 C4.01 1.495 4.01 1.495 3 2 C3 2.66 3 3.32 3 4 C1.35 4.33 -0.3 4.66 -2 5 C-2 4.01 -2 3.02 -2 2 C-1.34 2 -0.68 2 0 2 C0 1.34 0 0.68 0 0 Z " fill="#B7D386" transform="translate(69,26)"/>
<path d="M0 0 C-0.99 0.495 -0.99 0.495 -2 1 C-1.67 1.66 -1.34 2.32 -1 3 C-2.98 3.33 -4.96 3.66 -7 4 C-7.33 3.01 -7.66 2.02 -8 1 C-3.375 -1.125 -3.375 -1.125 0 0 Z " fill="#B7D385" transform="translate(77,21)"/>
<path d="M0 0 C0.66 0 1.32 0 2 0 C2.33 0.66 2.66 1.32 3 2 C4.65 1.34 6.3 0.68 8 0 C7.34 1.32 6.68 2.64 6 4 C4.02 4 2.04 4 0 4 C-0.33 3.01 -0.66 2.02 -1 1 C-0.67 0.67 -0.34 0.34 0 0 Z " fill="#6CB583" transform="translate(29,46)"/>
<path d="M0 0 C0.99 0.33 1.98 0.66 3 1 C1.25 3.0625 1.25 3.0625 -1 5 C-3.25 4.75 -3.25 4.75 -5 4 C-2.6875 1.9375 -2.6875 1.9375 0 0 Z " fill="#DBEAD4" transform="translate(77,35)"/>
<path d="M0 0 C0.99 1.32 1.98 2.64 3 4 C2.34 4.66 1.68 5.32 1 6 C-0.32 6 -1.64 6 -3 6 C-1.125 1.125 -1.125 1.125 0 0 Z " fill="#198B3F" transform="translate(30,2)"/>
<path d="M0 0 C1.65 0 3.3 0 5 0 C5 0.66 5 1.32 5 2 C4.34 2 3.68 2 3 2 C3 2.99 3 3.98 3 5 C2.01 4.67 1.02 4.34 0 4 C0 2.68 0 1.36 0 0 Z " fill="#E7EFDF" transform="translate(86,20)"/>
<path d="M0 0 C1.98 0 3.96 0 6 0 C5.01 0.33 4.02 0.66 3 1 C3 1.99 3 2.98 3 4 C1.68 3.67 0.36 3.34 -1 3 C-0.67 2.01 -0.34 1.02 0 0 Z " fill="#D1E2B5" transform="translate(80,20)"/>
</svg>
